<?xml version="1.0" encoding="UTF-8" standalone="no"?>
<!-- Created with Inkscape (http://www.inkscape.org/) -->

<svg
   viewBox="3 33 204 200"
   version="1.1"
   id="svg1"
   xml:space="preserve"
   xmlns="http://www.w3.org/2000/svg"
   xmlns:svg="http://www.w3.org/2000/svg"><defs
     id="defs1" /><g
     id="layer2"><path
       style="fill:#107dfe;fill-opacity:1;stroke-width:0.253734"
       d="M 51.36723,107.00649 36.76633,68.120163 c 0,0 -9.27042,-15.649373 9.27042,-6.639129 18.54082,9.010247 39.86278,20.391611 39.86278,20.391611 l 4.63521,-26.793626 c 0,0 1.854091,-20.628718 12.74681,-3.793788 10.89274,16.834932 15.75972,25.133843 15.75972,25.133843 l 31.75117,-22.05139 c 0,0 19.23611,-15.41226 11.58802,6.402016 -7.64809,21.814276 -8.11162,39.36055 -8.11162,39.36055 l 39.39928,15.17514 c 0,0 26.42068,8.53602 -0.69529,19.20605 -27.11597,10.67003 -28.73829,11.61847 -28.73829,11.61847 l 12.74683,28.21629 c 0,0 8.34337,20.86584 -12.74683,9.48447 -21.09019,-11.38136 -32.90998,-14.70092 -32.90998,-14.70092 l -10.19745,39.83476 c 0,0 -1.62232,31.29875 -16.91851,2.13401 C 88.91242,181.93378 87.05833,179.08843 87.05833,179.08843 l -36.61814,14.93804 c 0,0 -28.27477,15.88649 -15.52795,-10.90713 12.74683,-26.79362 12.28331,-30.58741 12.28331,-30.58741 L 6.6374697,131.42898 c 0,0 -9.5021702,-9.24735 2.54937,-12.56691 C 21.23838,115.5425 51.36723,107.00649 51.36723,107.00649 Z"
       id="path2" /><ellipse
       style="fill:#000000;fill-opacity:1;stroke-width:0.253734"
       id="path3"
       cx="78.393959"
       cy="116.18192"
       rx="3.7081664"
       ry="3.5566757" /><ellipse
       style="fill:#000000;fill-opacity:1;stroke-width:0.253734"
       id="path4"
       cx="127.52718"
       cy="119.26438"
       rx="3.4764061"
       ry="3.5566757" /><ellipse
       style="fill:#000000;fill-opacity:1;stroke-width:0.253734"
       id="path5"
       cx="101.91766"
       cy="128.39319"
       rx="4.0558071"
       ry="4.1494546" /><ellipse
       style="fill:#ff5027;fill-opacity:1;stroke-width:0.228115"
       id="path6"
       ry="4.50209"
       rx="6.1459742"
       cy="-116.42036"
       cx="-100.34056"
       transform="matrix(-0.9841149,-0.1775327,0.16984348,-0.98547105,0,0)" /><ellipse
       style="fill:#ff5027;fill-opacity:1;stroke-width:0.228115"
       id="path6-5"
       ry="4.50209"
       rx="6.1459742"
       cy="-112.0674"
       cx="-145.21527"
       transform="matrix(-0.9841149,-0.1775327,0.16984348,-0.98547105,0,0)" /><path
       style="fill:#ff5027;fill-opacity:1;stroke-width:0.253734"
       d="m 100.87472,130.64573 -8.343356,6.87623"
       id="path9" /><path
       style="fill:#000000;fill-opacity:1;stroke-width:0.253734"
       id="path22"
       d="m 100.36885,132.38251 c 0.31404,0.8754 0.50971,1.82424 0.92866,2.65902 0.10734,0.21384 0.235,0.41634 0.3525,0.6245 0.28821,0.3816 0.53342,0.79741 0.86575,1.14335 0.35533,0.36991 0.77105,0.66106 1.13895,1.01532 0.82785,0.76169 1.74883,1.40854 2.73063,1.9425 0.89213,0.49965 1.85075,0.69304 2.8567,0.69376 0.80193,-0.003 1.5942,-0.17073 2.36227,-0.39349 0,0 -1.15175,-3.69672 -1.15175,-3.69672 v 0 c -0.10565,0.11177 -1.0076,0.205 -1.23877,0.21034 -0.39293,0.0103 -0.7288,-0.0355 -1.08032,-0.25708 -0.70047,-0.35532 -1.33279,-0.8445 -1.92265,-1.36556 -0.49444,-0.45376 -1.02595,-0.79742 -1.37193,-1.39248 -0.10681,0.13153 -0.0166,0.0373 -0.1697,-0.34578 -0.18843,-0.47169 -0.35766,-0.95244 -0.51342,-1.43667 -0.0669,-0.20806 -0.12608,-0.41865 -0.18912,-0.62796 z" /><path
       style="fill:#000000;fill-opacity:1;stroke-width:0.253734"
       id="path22-1"
       d="m 103.21998,132.44009 c -0.31405,0.8754 -0.50972,1.82424 -0.92867,2.65902 -0.10733,0.21384 -0.235,0.41634 -0.3525,0.6245 -0.2882,0.3816 -0.53341,0.79741 -0.86575,1.14335 -0.35533,0.36991 -0.77105,0.66106 -1.138946,1.01532 -0.82784,0.76169 -1.74883,1.40854 -2.73063,1.9425 -0.89213,0.49965 -1.85075,0.69304 -2.8567,0.69376 -0.80193,-0.003 -1.5942,-0.17074 -2.362267,-0.39349 0,0 1.151747,-3.69672 1.151747,-3.69672 v 0 c 0.10566,0.11177 1.0076,0.205 1.23877,0.21034 0.39294,0.0103 0.72881,-0.0355 1.08033,-0.25708 0.70046,-0.35532 1.33278,-0.8445 1.92264,-1.36556 0.49444,-0.45376 1.02595,-0.79742 1.37193,-1.39248 0.10681,0.13153 0.0166,0.0373 0.1697,-0.34578 0.18844,-0.47169 0.35767,-0.95244 0.51342,-1.43667 0.0669,-0.20806 0.12608,-0.41865 0.18912,-0.62796 z" /></g></svg>
